<?xml version="1.0" encoding="UTF-8" standalone="no"?>
<!DOCTYPE svg PUBLIC "-//W3C//DTD SVG 1.1//EN" "http://www.w3.org/Graphics/SVG/1.1/DTD/svg11.dtd">
<svg xmlns="http://www.w3.org/2000/svg" version="1.1" viewBox="0.00 0.00 300.00 108.00">
<path fill="#fe6e3e" d="
  M 97.86 53.27
  A 45.81 45.81 0.0 0 1 52.05 99.08
  A 45.81 45.81 0.0 0 1 6.24 53.27
  A 45.81 45.81 0.0 0 1 52.05 7.46
  A 45.81 45.81 0.0 0 1 97.86 53.27
  Z
  M 52.05 74.47
  Q 55.91 74.46 58.24 72.98
  C 63.18 69.83 66.03 67.74 71.31 71.57
  Q 76.06 75.01 79.87 78.66
  A 0.69 0.67 42.1 0 0 80.85 78.62
  Q 91.49 66.39 90.51 50.74
  C 89.26 30.62 71.48 14.80 51.97 14.83
  C 32.45 14.85 14.72 30.73 13.52 50.85
  Q 12.59 66.50 23.27 78.70
  A 0.69 0.67 -42.3 0 0 24.25 78.74
  Q 28.05 75.08 32.79 71.62
  C 38.05 67.78 40.91 69.86 45.86 72.99
  Q 48.19 74.47 52.05 74.47
  Z"
/>
<path fill="#fe6e3e" d="
  M 35.67 58.09
  Q 35.37 58.03 33.91 57.84
  C 27.40 56.99 25.30 49.00 30.11 44.74
  A 1.40 1.36 73.3 0 0 30.57 43.85
  Q 32.13 30.22 43.57 24.50
  C 49.59 21.48 57.58 21.83 63.60 25.57
  Q 73.28 31.57 74.71 43.57
  A 1.97 1.90 21.4 0 0 75.21 44.66
  C 76.66 46.23 77.72 47.43 77.90 49.37
  Q 78.41 54.73 73.46 57.36
  C 72.57 57.83 71.40 57.65 70.69 58.04
  A 1.63 1.62 -88.4 0 0 70.07 58.63
  Q 64.18 68.18 54.27 68.59
  Q 42.89 69.06 36.35 58.56
  A 1.05 1.05 0.0 0 0 35.67 58.09
  Z
  M 52.70 29.09
  C 61.35 29.11 67.56 35.78 68.75 44.25
  A 0.76 0.76 0.0 0 0 69.76 44.86
  L 70.18 44.71
  A 1.12 1.11 76.7 0 0 70.91 43.53
  C 69.77 34.13 62.06 26.48 52.70 26.46
  C 43.34 26.44 35.60 34.05 34.42 43.44
  A 1.12 1.11 -76.5 0 0 35.14 44.63
  L 35.56 44.78
  A 0.76 0.76 0.0 0 0 36.57 44.18
  C 37.80 35.72 44.04 29.07 52.70 29.09
  Z
  M 65.30 57.99
  Q 64.28 57.72 63.13 58.16
  C 58.70 59.87 56.17 60.09 51.74 60.22
  A 0.91 0.90 -86.6 0 0 50.87 61.00
  Q 50.67 62.40 49.79 64.02
  A 0.34 0.33 -71.7 0 0 50.03 64.51
  Q 59.74 66.04 65.51 58.60
  A 0.39 0.38 -64.3 0 0 65.30 57.99
  Z"
/>
<path fill="#1c1b1a" d="
  M 108.72 70.98
  L 110.73 65.56
  A 0.59 0.58 25.3 0 1 111.58 65.26
  Q 118.42 69.33 124.23 67.34
  C 128.22 65.98 126.70 61.43 123.22 60.32
  C 117.72 58.57 109.70 57.08 109.18 49.84
  C 108.17 35.80 124.08 34.38 133.09 39.66
  A 1.46 1.46 0.0 0 1 133.72 41.42
  L 132.03 45.97
  A 0.95 0.95 0.0 0 1 130.60 46.42
  Q 126.09 43.29 120.56 43.76
  C 117.62 44.01 115.56 46.88 117.35 49.56
  C 119.13 52.22 126.63 52.96 129.63 54.93
  C 137.40 60.04 135.09 72.07 125.88 74.33
  Q 116.78 76.56 108.97 71.72
  A 0.62 0.61 -64.2 0 1 108.72 70.98
  Z"
/>
<path fill="#1c1b1a" d="
  M 200.51 44.01
  C 198.29 43.05 193.53 42.80 194.43 46.90
  A 0.72 0.71 -6.0 0 0 195.13 47.46
  L 200.76 47.46
  A 0.56 0.56 0.0 0 1 201.32 48.02
  L 201.32 52.84
  A 0.58 0.58 0.0 0 1 200.74 53.42
  L 195.23 53.42
  A 0.62 0.62 0.0 0 0 194.61 54.04
  L 194.61 73.78
  A 0.70 0.69 0.0 0 1 193.91 74.47
  L 188.08 74.47
  A 0.71 0.70 0.0 0 1 187.37 73.77
  L 187.37 53.96
  A 0.53 0.52 90.0 0 0 186.85 53.43
  L 184.58 53.43
  A 0.78 0.78 0.0 0 1 183.80 52.67
  Q 183.76 50.44 183.80 48.09
  Q 183.82 47.13 186.19 47.53
  A 0.75 0.75 0.0 0 0 187.07 46.74
  C 186.46 38.00 193.63 35.67 200.73 37.66
  A 0.94 0.93 -82.2 0 1 201.41 38.56
  L 201.41 43.42
  A 0.64 0.64 0.0 0 1 200.51 44.01
  Z"
/>
<path fill="#1c1b1a" d="
  M 220.36 38.63
  L 220.33 43.49
  A 0.64 0.64 0.0 0 1 219.43 44.08
  C 217.21 43.11 212.46 42.83 213.33 46.94
  A 0.72 0.71 -5.7 0 0 214.03 47.50
  L 219.66 47.53
  A 0.56 0.56 0.0 0 1 220.22 48.09
  L 220.19 52.91
  A 0.58 0.58 0.0 0 1 219.61 53.49
  L 214.10 53.46
  A 0.62 0.62 0.0 0 0 213.48 54.08
  L 213.37 73.82
  A 0.70 0.69 0.3 0 1 212.67 74.50
  L 206.84 74.47
  A 0.71 0.70 0.3 0 1 206.13 73.77
  L 206.24 53.96
  A 0.53 0.52 -89.7 0 0 205.72 53.43
  L 203.45 53.42
  A 0.78 0.78 0.0 0 1 202.68 52.65
  Q 202.65 50.42 202.70 48.07
  Q 202.72 47.11 205.09 47.52
  A 0.75 0.75 0.0 0 0 205.98 46.74
  C 205.41 38.00 212.59 35.70 219.68 37.73
  A 0.94 0.93 -81.9 0 1 220.36 38.63
  Z"
/>
<path fill="#1c1b1a" d="
  M 247.29 65.32
  Q 247.44 65.32 247.46 65.25
  Q 252.10 51.58 256.65 37.83
  A 0.38 0.37 8.3 0 1 257.01 37.57
  L 265.08 37.57
  A 0.14 0.14 0.0 0 1 265.21 37.76
  L 251.76 74.01
  A 0.63 0.63 0.0 0 1 251.29 74.42
  Q 251.11 74.45 247.32 74.47
  Q 243.54 74.48 243.36 74.45
  A 0.63 0.63 0.0 0 1 242.89 74.04
  L 229.16 37.90
  A 0.14 0.14 0.0 0 1 229.29 37.71
  L 237.36 37.64
  A 0.38 0.37 -8.7 0 1 237.72 37.90
  Q 242.37 51.62 247.12 65.25
  Q 247.14 65.32 247.29 65.32
  Z"
/>
<path fill="#1c1b1a" d="
  M 276.83 37.62
  Q 278.81 37.62 280.47 37.73
  A 0.83 0.82 -7.6 0 1 281.19 38.28
  L 293.98 73.72
  A 0.55 0.54 80.1 0 1 293.47 74.45
  L 286.93 74.45
  A 1.01 1.01 0.0 0 1 285.98 73.78
  L 283.57 67.09
  A 0.71 0.70 79.8 0 0 282.90 66.62
  Q 282.29 66.62 276.89 66.64
  Q 271.49 66.65 270.88 66.65
  A 0.71 0.70 -80.1 0 0 270.22 67.12
  L 267.84 73.82
  A 1.01 1.01 0.0 0 1 266.89 74.49
  L 260.35 74.52
  A 0.55 0.54 -80.4 0 1 259.84 73.79
  L 272.47 38.30
  A 0.83 0.82 7.4 0 1 273.19 37.75
  Q 274.85 37.62 276.83 37.62
  Z
  M 272.50 59.92
  A 0.31 0.31 0.0 0 0 272.79 60.32
  L 280.95 60.34
  A 0.31 0.31 0.0 0 0 281.25 59.93
  L 277.19 47.18
  A 0.31 0.31 0.0 0 0 276.60 47.18
  L 272.50 59.92
  Z"
/>
<path fill="#1c1b1a" d="
  M 153.10 67.83
  A 0.55 0.54 -19.0 0 1 153.78 68.16
  L 155.26 72.26
  A 1.18 1.18 0.0 0 1 154.66 73.72
  C 149.18 76.36 140.62 75.28 140.24 67.71
  Q 139.83 59.51 140.17 54.15
  A 0.69 0.69 0.0 0 0 139.48 53.42
  L 136.75 53.42
  A 0.85 0.85 0.0 0 1 135.90 52.57
  L 135.90 48.37
  A 0.91 0.91 0.0 0 1 136.81 47.46
  L 139.10 47.46
  A 0.56 0.56 0.0 0 0 139.66 46.90
  L 139.66 40.67
  A 0.39 0.39 0.0 0 1 140.05 40.28
  L 146.94 40.28
  A 0.37 0.36 -90.0 0 1 147.30 40.65
  L 147.30 46.87
  A 0.63 0.63 0.0 0 0 147.93 47.50
  L 153.82 47.50
  A 0.42 0.41 -0.0 0 1 154.24 47.91
  L 154.24 53.05
  A 0.39 0.39 0.0 0 1 153.85 53.44
  L 147.85 53.44
  A 0.55 0.55 0.0 0 0 147.30 53.99
  Q 147.31 60.25 147.30 64.02
  Q 147.30 68.37 150.66 68.56
  A 1.06 1.05 -51.5 0 0 151.09 68.51
  L 153.10 67.83
  Z"
/>
<path fill="#1c1b1a" d="
  M 173.44 71.96
  C 172.48 72.75 171.87 73.66 170.76 74.12
  C 157.98 79.47 151.63 62.44 163.95 58.93
  Q 168.04 57.76 171.92 57.78
  A 1.42 1.42 0.0 0 0 173.26 55.88
  L 172.97 55.07
  A 3.45 3.45 0.0 0 0 170.23 52.83
  Q 165.17 52.10 160.71 54.98
  A 0.59 0.58 -26.4 0 1 159.84 54.69
  L 158.45 50.82
  A 1.04 1.03 62.8 0 1 158.83 49.62
  Q 164.35 45.80 171.68 46.63
  Q 180.49 47.62 180.46 56.77
  Q 180.42 69.36 180.51 73.93
  A 0.54 0.54 0.0 0 1 179.97 74.48
  L 174.68 74.48
  A 0.74 0.73 -90.0 0 1 173.95 73.74
  L 173.95 72.20
  A 0.31 0.31 0.0 0 0 173.44 71.96
  Z
  M 172.52 62.70
  C 169.39 63.04 165.78 62.98 165.01 65.77
  C 163.55 71.01 174.07 70.64 173.27 63.30
  A 0.67 0.67 0.0 0 0 172.52 62.70
  Z"
/>
</svg>
