<?xml version="1.0" encoding="UTF-8" standalone="no"?>
<!DOCTYPE svg PUBLIC "-//W3C//DTD SVG 1.1//EN" "http://www.w3.org/Graphics/SVG/1.1/DTD/svg11.dtd">
<svg xmlns="http://www.w3.org/2000/svg" version="1.1" viewBox="0.00 0.00 300.00 108.00">
<path fill="#fe6e3e" d="
  M 98.04 53.38
  A 45.81 45.81 0.0 0 1 52.23 99.19
  A 45.81 45.81 0.0 0 1 6.42 53.38
  A 45.81 45.81 0.0 0 1 52.23 7.57
  A 45.81 45.81 0.0 0 1 98.04 53.38
  Z
  M 52.25 74.60
  C 56.26 74.59 58.93 73.05 62.38 70.60
  A 2.82 2.67 -70.8 0 1 63.09 70.23
  Q 67.42 68.68 71.11 71.37
  Q 75.87 74.83 80.32 78.96
  A 0.40 0.39 -47.5 0 0 80.88 78.93
  C 99.16 58.00 91.03 27.49 65.52 17.43
  Q 59.24 14.95 52.14 14.97
  Q 45.04 14.98 38.76 17.48
  C 13.29 27.63 5.27 58.17 23.63 79.03
  A 0.40 0.39 47.3 0 0 24.19 79.06
  Q 28.62 74.91 33.37 71.44
  Q 37.05 68.73 41.39 70.27
  A 2.82 2.67 70.6 0 1 42.10 70.63
  C 45.56 73.07 48.23 74.61 52.25 74.60
  Z"
/>
<path fill="#fe6e3e" d="
  M 75.25 44.69
  L 76.76 46.21
  A 3.07 3.01 -77.6 0 1 77.48 47.36
  Q 79.62 53.51 74.45 57.03
  C 73.38 57.76 72.07 57.84 70.96 58.18
  A 1.31 1.30 6.4 0 0 70.25 58.74
  C 62.22 72.13 44.68 72.10 36.67 58.78
  A 1.32 1.29 75.1 0 0 35.59 58.14
  C 28.19 57.89 24.85 49.92 30.39 44.71
  A 1.71 1.70 70.4 0 0 30.91 43.61
  C 32.40 24.13 55.96 14.80 69.31 30.42
  Q 74.32 36.28 74.84 43.80
  A 1.42 1.41 20.4 0 0 75.25 44.69
  Z
  M 52.78 29.17
  C 61.38 29.14 67.77 35.88 68.91 44.33
  A 0.73 0.72 76.0 0 0 69.87 44.91
  L 70.32 44.75
  A 1.09 1.09 0.0 0 0 71.03 43.61
  C 70.00 34.20 62.21 26.57 52.77 26.60
  C 43.33 26.64 35.59 34.33 34.64 43.75
  A 1.09 1.09 0.0 0 0 35.36 44.89
  L 35.81 45.04
  A 0.73 0.72 -76.4 0 0 36.77 44.45
  C 37.84 36.00 44.18 29.21 52.78 29.17
  Z
  M 50.14 64.61
  Q 59.50 66.20 65.60 58.97
  A 0.56 0.56 0.0 0 0 65.25 58.06
  Q 64.15 57.92 63.26 58.28
  Q 57.42 60.63 51.85 60.31
  A 0.48 0.48 0.0 0 0 51.36 60.62
  L 49.98 64.34
  A 0.21 0.21 0.0 0 0 50.14 64.61
  Z"
/>
<path fill="#1c1b1a" d="
  M 132.15 46.21
  A 0.79 0.79 0.0 0 1 130.97 46.59
  Q 126.26 43.46 121.11 43.86
  C 116.21 44.25 115.14 49.76 119.89 51.35
  Q 125.95 53.38 127.18 53.81
  C 133.92 56.15 136.28 62.79 133.17 68.99
  C 128.99 77.33 115.98 76.13 109.24 71.89
  A 0.75 0.74 -63.9 0 1 108.94 71.00
  L 110.92 65.66
  A 0.65 0.65 0.0 0 1 111.90 65.35
  Q 117.12 68.92 123.27 67.85
  C 126.70 67.25 128.19 63.29 124.82 61.20
  Q 123.12 60.15 116.21 58.08
  C 111.13 56.56 108.61 51.69 109.49 46.31
  C 111.29 35.29 125.92 35.35 133.33 39.81
  A 1.36 1.36 0.0 0 1 133.91 41.46
  L 132.15 46.21
  Z"
/>
<path fill="#1c1b1a" d="
  M 201.01 47.61
  A 0.42 0.41 0.0 0 1 201.43 48.02
  L 201.43 53.14
  A 0.46 0.45 0.0 0 1 200.97 53.59
  L 195.33 53.59
  A 0.49 0.49 0.0 0 0 194.84 54.08
  L 194.84 74.00
  A 0.61 0.61 0.0 0 1 194.23 74.61
  L 188.28 74.61
  A 0.68 0.67 -90.0 0 1 187.61 73.93
  L 187.61 54.20
  A 0.65 0.64 0.0 0 0 186.96 53.56
  L 184.48 53.56
  A 0.74 0.74 0.0 0 1 183.74 52.82
  L 183.74 48.36
  A 0.77 0.77 0.0 0 1 184.51 47.59
  L 186.63 47.59
  A 0.76 0.76 0.0 0 0 187.39 46.77
  C 186.63 37.95 193.86 35.89 201.01 37.80
  A 0.87 0.87 0.0 0 1 201.66 38.64
  L 201.66 43.51
  A 0.71 0.70 11.0 0 1 200.69 44.16
  Q 195.32 42.01 194.41 46.17
  A 1.19 1.18 -83.9 0 0 195.56 47.61
  L 201.01 47.61
  Z"
/>
<path fill="#1c1b1a" d="
  M 219.98 43.83
  L 215.57 43.83
  A 2.04 2.02 -82.0 0 0 213.62 45.31
  L 213.41 46.04
  A 1.23 1.22 -82.1 0 0 214.58 47.60
  L 220.04 47.60
  A 0.47 0.47 0.0 0 1 220.51 48.07
  L 220.51 53.08
  A 0.54 0.53 -0.0 0 1 219.97 53.61
  L 214.08 53.61
  A 0.49 0.49 0.0 0 0 213.59 54.10
  L 213.59 74.03
  A 0.59 0.59 0.0 0 1 213.00 74.62
  L 206.98 74.62
  A 0.59 0.59 0.0 0 1 206.39 74.03
  L 206.39 54.19
  A 0.62 0.62 0.0 0 0 205.77 53.57
  L 203.79 53.57
  A 0.70 0.70 0.0 0 1 203.09 52.87
  L 203.09 48.19
  A 0.61 0.61 0.0 0 1 203.70 47.58
  L 205.58 47.58
  A 0.57 0.57 0.0 0 0 206.15 46.98
  C 205.65 38.05 212.29 36.03 219.69 37.80
  A 1.04 1.02 6.8 0 1 220.49 38.80
  L 220.49 43.32
  A 0.51 0.51 0.0 0 1 219.98 43.83
  Z"
/>
<path fill="#1c1b1a" d="
  M 247.46 65.37
  Q 247.69 65.37 247.83 64.93
  Q 252.32 51.26 256.88 37.92
  A 0.37 0.36 8.6 0 1 257.23 37.67
  L 265.25 37.67
  A 0.15 0.15 0.0 0 1 265.39 37.87
  L 252.02 73.92
  A 1.08 1.07 -87.6 0 1 251.30 74.59
  Q 251.28 74.59 247.50 74.61
  Q 243.72 74.62 243.69 74.61
  A 1.08 1.07 87.2 0 1 242.97 73.95
  L 229.34 38.00
  A 0.15 0.15 0.0 0 1 229.48 37.80
  L 237.50 37.74
  A 0.37 0.36 -9.0 0 1 237.85 37.99
  Q 242.51 51.29 247.09 64.93
  Q 247.24 65.37 247.46 65.37
  Z"
/>
<path fill="#1c1b1a" d="
  M 277.01 37.72
  Q 279.37 37.71 280.60 37.81
  A 0.87 0.87 0.0 0 1 281.36 38.39
  L 294.18 73.84
  A 0.55 0.55 0.0 0 1 293.67 74.58
  L 287.11 74.58
  A 0.99 0.99 0.0 0 1 286.18 73.93
  L 283.74 67.16
  A 0.72 0.72 0.0 0 0 283.07 66.69
  Q 282.36 66.68 277.08 66.69
  Q 271.80 66.70 271.09 66.72
  A 0.72 0.72 0.0 0 0 270.42 67.19
  L 268.02 73.98
  A 0.99 0.99 0.0 0 1 267.09 74.63
  L 260.53 74.66
  A 0.55 0.55 0.0 0 1 260.02 73.93
  L 272.66 38.41
  A 0.87 0.87 0.0 0 1 273.41 37.83
  Q 274.65 37.72 277.01 37.72
  Z
  M 272.68 60.03
  A 0.31 0.31 0.0 0 0 272.97 60.44
  L 281.13 60.45
  A 0.31 0.31 0.0 0 0 281.43 60.05
  L 277.37 47.28
  A 0.31 0.31 0.0 0 0 276.78 47.28
  L 272.68 60.03
  Z"
/>
<path fill="#1c1b1a" d="
  M 153.86 68.09
  L 155.59 72.87
  A 0.58 0.58 0.0 0 1 155.31 73.58
  C 148.12 77.17 140.04 74.87 140.15 65.73
  Q 140.26 56.43 140.19 54.11
  A 0.56 0.56 0.0 0 0 139.63 53.57
  L 136.97 53.57
  A 0.84 0.83 90.0 0 1 136.14 52.73
  L 136.14 48.31
  A 0.73 0.73 0.0 0 1 136.87 47.58
  L 139.26 47.58
  A 0.59 0.58 -90.0 0 0 139.84 46.99
  L 139.84 41.29
  A 0.94 0.93 -0.0 0 1 140.78 40.36
  L 146.46 40.36
  A 0.95 0.95 0.0 0 1 147.41 41.31
  L 147.41 46.67
  A 0.92 0.92 0.0 0 0 148.33 47.59
  L 153.53 47.59
  A 0.86 0.86 0.0 0 1 154.39 48.45
  L 154.39 52.78
  A 0.82 0.81 -90.0 0 1 153.58 53.60
  L 147.97 53.60
  A 0.55 0.54 -0.5 0 0 147.42 54.15
  Q 147.43 60.22 147.39 62.87
  C 147.34 67.09 148.79 69.96 153.41 67.90
  A 0.34 0.33 -21.5 0 1 153.86 68.09
  Z"
/>
<path fill="#1c1b1a" d="
  M 174.18 72.32
  A 0.31 0.31 0.0 0 0 173.64 72.11
  C 168.34 77.81 156.87 75.62 157.64 66.32
  C 158.22 59.32 165.85 58.04 171.72 57.95
  A 1.79 1.79 0.0 0 0 173.35 55.49
  L 173.33 55.46
  A 4.32 4.32 0.0 0 0 169.42 52.77
  Q 164.75 52.67 161.14 54.93
  A 0.85 0.84 63.8 0 1 159.90 54.50
  L 158.64 51.00
  A 1.21 1.20 64.3 0 1 159.13 49.57
  Q 165.33 45.68 172.72 46.89
  C 177.44 47.65 180.50 50.92 180.60 55.43
  Q 180.73 61.75 180.66 73.99
  A 0.63 0.62 -0.0 0 1 180.03 74.61
  L 174.90 74.61
  A 0.72 0.72 0.0 0 1 174.18 73.89
  L 174.18 72.32
  Z
  M 173.03 62.73
  L 167.63 63.56
  A 2.91 2.90 -9.8 0 0 165.22 66.98
  L 165.27 67.22
  A 2.91 2.90 -11.1 0 0 168.59 69.45
  Q 174.13 68.50 173.39 63.00
  A 0.31 0.31 0.0 0 0 173.03 62.73
  Z"
/>
</svg>
